HIERARCHY
ROOT Hips
{
	OFFSET -3.958830 18.904000 13.208200
	CHANNELS 6 Xposition Yposition Zposition Zrotation Yrotation Xrotation 
	JOINT LHipJoint
	{
		OFFSET 0.000000 0.000000 0.000000
		CHANNELS 3 Zrotation Yrotation Xrotation
		JOINT LeftUpLeg
		{
			OFFSET 1.800000 -1.400000 0.085000
			CHANNELS 3 Zrotation Yrotation Xrotation
			JOINT LeftLeg
			{
				OFFSET 2.215000 -6.000000 0.000000
				CHANNELS 3 Zrotation Yrotation Xrotation
				JOINT LeftFoot
				{
					OFFSET 2.500000 -6.900000 0.000000
					CHANNELS 3 Zrotation Yrotation Xrotation
					JOINT LeftToeBase
					{
						OFFSET 0.200000 -0.500000 1.950000
						CHANNELS 3 Zrotation Yrotation Xrotation
						End Site
						{
							OFFSET 0.000000 0.000000 0.000000
						}
					}
				}
			}
		}
	}
	JOINT RHipJoint
	{
		OFFSET 0.000000 0.000000 0.000000
		CHANNELS 3 Zrotation Yrotation Xrotation
		JOINT RightUpLeg
		{
			OFFSET -1.800000 -1.400000 0.085000
			CHANNELS 3 Zrotation Yrotation Xrotation
			JOINT RightLeg
			{
				OFFSET -2.215000 -6.000000 0.000000
				CHANNELS 3 Zrotation Yrotation Xrotation
				JOINT RightFoot
				{
					OFFSET -2.500000 -6.900000 0.000000
					CHANNELS 3 Zrotation Yrotation Xrotation
					JOINT RightToeBase
					{
						OFFSET -0.200000 -0.500000 1.950000
						CHANNELS 3 Zrotation Yrotation Xrotation
						End Site
						{
							OFFSET 0.000000 0.000000 0.000000
						}
					}
				}
			}
		}
	}
	JOINT LowerBack
	{
		OFFSET 0.000000 0.000000 0.000000
		CHANNELS 3 Zrotation Yrotation Xrotation
		JOINT Spine
		{
			OFFSET -0.087000 1.940000 -0.288900
			CHANNELS 3 Zrotation Yrotation Xrotation
			JOINT Spine1
			{
				OFFSET 0.000000 1.950000 0.060000
				CHANNELS 3 Zrotation Yrotation Xrotation
				JOINT Neck
				{
					OFFSET 0.000000 0.000000 0.000000
					CHANNELS 3 Zrotation Yrotation Xrotation
					JOINT Neck1
					{
						OFFSET 0.000000 1.600000 0.340000
						CHANNELS 3 Zrotation Yrotation Xrotation
						JOINT Head
						{
							OFFSET 0.000000 1.667000 -0.240000
							CHANNELS 3 Zrotation Yrotation Xrotation
							End Site
							{
								OFFSET 0.000000 0.000000 0.000000
							}
						}
					}
				}
				JOINT LeftShoulder
				{
					OFFSET 0.000000 0.000000 0.000000
					CHANNELS 3 Zrotation Yrotation Xrotation
					JOINT LeftArm
					{
						OFFSET 2.700000 1.550000 -0.730000
						CHANNELS 3 Zrotation Yrotation Xrotation
						JOINT LeftForeArm
						{
							OFFSET 5.450000 0.000000 0.000000
							CHANNELS 3 Zrotation Yrotation Xrotation
							JOINT LeftHand
							{
								OFFSET 3.450000 0.000000 0.000000
								CHANNELS 3 Zrotation Yrotation Xrotation
								JOINT LeftHandIndex1
								{
									OFFSET 0.750000 0.000000 0.000000
									CHANNELS 3 Zrotation Yrotation Xrotation
									End Site
									{
										OFFSET 0.000000 0.000000 0.000000
									}
								}
							}
						}
					}
				}
				JOINT RightShoulder
				{
					OFFSET 0.000000 0.000000 0.000000
					CHANNELS 3 Zrotation Yrotation Xrotation
					JOINT RightArm
					{
						OFFSET -2.700000 1.550000 -0.730000
						CHANNELS 3 Zrotation Yrotation Xrotation
						JOINT RightForeArm
						{
							OFFSET -5.450000 0.000000 0.000000
							CHANNELS 3 Zrotation Yrotation Xrotation
							JOINT RightHand
							{
								OFFSET -3.450000 0.000000 0.000000
								CHANNELS 3 Zrotation Yrotation Xrotation
								JOINT RightHandIndex1
								{
									OFFSET -0.750000 0.000000 0.000000
									CHANNELS 3 Zrotation Yrotation Xrotation
									End Site
									{
										OFFSET 0.000000 0.000000 0.000000
									}
								}
							}
						}
					}
				}
			}
		}
	}
}
MOTION
Frames: 8
Frame Time: 0.016667
-0.363280 16.913470 -6.421210 -0.611426 -1.026210 1.922617 -15.095566 13.241769 3.745349 13.608206 -4.276931 -19.749137 -17.551966 10.968482 23.445184 -0.139972 6.984194 2.266344 0.400190 0.099880 0.041850 18.316566 -10.748637 1.942025 -8.100767 0.867622 -22.093259 -1.032087 -4.893573 25.546343 -0.103578 -3.684684 3.223838 0.189260 0.589100 0.255890 -3.714282 -2.685964 -7.256923 9.834116 -5.973880 11.095941 -10.015494 -3.840528 7.474657 1.453880 -6.881720 -10.419684 -13.150601 3.857654 23.058892 1.118100 -1.433850 -8.087840 -17.620184 -13.890773 2.538840 -28.347962 -17.052409 -1.293046 -1.241591 -37.461235 -0.544868 -3.834530 3.094184 0.335290 0.327370 -0.259670 0.372100 14.591637 16.799129 9.095839 32.679634 3.784451 -4.475356 48.963371 45.515044 15.277170 1.876600 -1.864871 -0.240320 0.351900 0.058630 -0.081290 
-0.393990 16.923560 -6.425650 -0.581513 -1.484735 1.934746 -15.123163 13.056838 3.980365 14.939573 -4.646957 -20.888469 -19.801871 11.881341 23.967563 -0.065065 7.450164 2.098720 0.383540 0.060440 0.066910 18.312528 -10.642278 1.903606 -8.435362 0.942049 -21.944979 -0.260433 -5.126281 25.413151 -0.105887 -3.682692 3.224904 0.168440 0.579730 0.239250 -3.668044 -2.666133 -7.393789 9.513486 -5.723967 11.584765 -9.750045 -3.543713 7.247924 1.514160 -6.782628 -10.553477 -13.042421 3.756954 23.426118 0.823460 -1.246020 -8.399060 -17.538786 -14.000686 2.586644 -27.906638 -16.650004 -1.371703 -1.135627 -36.382452 -0.575980 -3.833898 3.041676 0.369930 0.313150 -0.256040 0.353180 14.416364 17.018684 9.219071 32.719720 3.609658 -4.646682 49.589945 44.929957 15.197454 1.884521 -1.830322 -0.266590 0.369430 0.066480 -0.106470 
-0.449050 16.940670 -6.434750 -0.735011 -2.445579 1.810400 -15.166411 12.698059 4.423809 17.698966 -5.077009 -22.681099 -24.032334 13.479699 24.321116 0.108981 8.228945 1.809643 0.375480 0.042250 0.097350 18.320033 -10.443207 1.833728 -8.979527 1.095061 -21.636701 1.197499 -5.586295 25.319203 -0.129539 -3.713713 3.215379 0.144790 0.541480 0.221510 -3.621169 -2.598582 -7.652147 9.381077 -5.436611 12.652419 -9.440101 -3.143987 6.805743 1.637694 -6.701619 -10.845050 -13.067499 3.953160 24.184596 0.500190 -0.636940 -9.222260 -17.504490 -14.246016 2.785054 -26.969121 -15.682813 -1.478398 -1.158448 -33.860324 -0.541641 -3.814688 2.983721 0.415220 0.279030 -0.225170 0.335550 14.174017 17.485232 9.390201 32.644751 3.461391 -4.935641 51.180872 44.240114 15.372422 1.909168 -1.791169 -0.276650 0.375900 0.060080 -0.129580 
-0.507990 16.948390 -6.444010 -1.101740 -3.648250 1.893747 -15.218014 12.231289 4.962813 21.094726 -5.210264 -24.612658 -29.306639 15.126662 23.634655 0.337265 9.019907 1.523517 0.350140 0.006210 0.104730 18.342603 -10.179477 1.774545 -9.922842 1.365948 -21.591083 3.440523 -6.340954 25.404131 -0.156780 -3.838500 3.165553 0.099680 0.503980 0.218120 -3.599002 -2.476997 -7.967725 9.760908 -5.022250 13.640120 -9.215324 -2.568243 6.243839 1.825953 -6.610525 -11.387785 -13.130922 4.156352 25.143429 0.361680 -0.118940 -9.346860 -17.401272 -14.692776 3.199452 -26.285434 -14.462890 -1.446895 -1.350617 -30.683821 -0.474882 -3.802957 2.952595 0.443860 0.248770 -0.199610 0.312220 13.745969 18.217973 9.757359 32.755111 2.944816 -5.406987 53.130940 43.792828 15.701136 1.942341 -1.767877 -0.267320 0.352740 0.064230 -0.142000 
-0.568650 16.949200 -6.460340 -1.221725 -5.066058 1.701230 -15.274005 11.786105 5.482748 24.250286 -5.005101 -26.013705 -34.719506 16.400854 22.091800 0.559101 9.633541 1.307432 0.331560 -0.026830 0.126670 18.352471 -9.926455 1.761432 -11.547355 1.681244 -21.779676 6.181981 -7.405182 26.027553 -0.218836 -4.105812 3.055383 0.048820 0.440550 0.219560 -3.561165 -2.336801 -8.334167 9.742088 -4.436241 15.223852 -9.012009 -1.785008 5.388595 2.098798 -6.200928 -11.953741 -12.774336 4.269711 26.957613 -0.035210 0.598310 -9.784480 -17.862743 -15.326647 3.629430 -25.093049 -12.969643 -1.486009 -2.031299 -27.641110 -0.283191 -3.775284 2.923875 0.491090 0.203230 -0.152620 0.286480 13.704630 19.011750 10.136261 33.377127 2.423349 -6.091775 53.890786 43.456603 15.625460 1.977647 -1.729483 -0.251400 0.318370 0.060570 -0.163610 
-0.633480 16.926170 -6.477780 -1.127753 -6.294230 1.630013 -15.370519 11.338905 5.972460 27.224811 -4.584990 -27.500869 -40.082138 17.337014 20.190629 0.751618 10.112959 1.147767 0.331240 -0.040700 0.174390 18.333930 -9.617071 1.795074 -13.800831 2.012859 -22.062921 9.639740 -8.733201 26.474646 -0.305901 -4.488319 2.892397 0.014500 0.371690 0.220460 -3.437775 -2.253258 -8.701862 8.989599 -3.572038 16.626504 -8.195215 -0.878437 4.606341 2.321681 -5.465934 -12.283205 -11.690575 4.001368 28.584984 -0.677310 1.266430 -10.758250 -18.121079 -15.597006 3.928935 -24.788901 -11.789919 -1.423793 -2.797402 -25.017012 -0.159316 -3.749501 2.886678 0.541130 0.157150 -0.100690 0.259650 13.581260 19.310738 10.283675 34.056665 1.978676 -6.662160 54.704416 43.080251 15.569301 2.009671 -1.697869 -0.238750 0.291330 0.045930 -0.191230 
-0.692500 16.885870 -6.490040 -1.022454 -7.443472 1.641943 -15.455982 10.896557 6.348841 29.735681 -3.886293 -28.531479 -44.917400 17.687457 17.769775 0.907390 10.375069 1.061076 0.352060 -0.022990 0.227630 18.328355 -9.280188 1.919550 -16.596947 2.391339 -22.557053 13.773253 -10.402821 27.005224 -0.438888 -5.050985 2.661196 -0.007410 0.293780 0.231160 -3.358544 -2.146887 -9.035477 8.592524 -2.834054 17.821146 -7.639915 -0.098328 3.833414 2.554116 -4.735737 -12.440482 -10.499251 3.660795 29.893202 -1.525980 1.978860 -12.348330 -18.336303 -15.443417 4.165862 -24.892833 -10.185195 -1.610755 -4.240393 -23.672764 0.061446 -3.704798 2.878400 0.588880 0.108640 -0.037190 0.241630 13.352308 19.135670 10.231886 35.301480 1.735492 -7.255731 55.013425 43.587662 15.786436 2.036303 -1.680490 -0.211020 0.256050 0.018120 -0.212430 
-0.748060 16.820260 -6.496570 -0.849144 -8.344339 1.903305 -15.539539 10.438807 6.626422 31.845623 -3.082155 -29.637496 -48.929436 17.726346 15.520677 1.037712 10.511681 1.013672 0.383820 0.024110 0.260230 18.336246 -8.874403 2.150846 -19.913445 2.757485 -23.272600 18.756136 -12.327802 27.107169 -0.599606 -5.759203 2.381553 -0.006600 0.228360 0.244550 -3.309958 -2.061014 -9.336067 8.294953 -2.251277 18.522783 -7.058338 0.454421 3.177329 2.642029 -4.141560 -12.427845 -9.342578 3.596236 30.389115 -1.980630 2.734800 -13.467570 -18.672137 -15.066303 4.405797 -25.153894 -8.235597 -1.880338 -5.950456 -22.623264 0.290085 -3.664499 2.913554 0.602090 0.075160 0.012490 0.238260 13.528886 18.724238 9.968552 36.477020 1.778377 -7.652890 55.131171 44.321788 16.103313 2.059861 -1.696189 -0.171530 0.211640 -0.016380 -0.216540 
